<?xml version="1.0" encoding="UTF-8"?>
<svg width="90px" height="36px" viewBox="0 0 90 36" version="1.1" xmlns="http://www.w3.org/2000/svg" xmlns:xlink="http://www.w3.org/1999/xlink">
    <!-- Generator: Sketch 41 (35326) - http://www.bohemiancoding.com/sketch -->
    <title>Group</title>
    <desc>Created with Sketch.</desc>
    <defs></defs>
    <g id="Page-1" stroke="none" stroke-width="1" fill="none" fill-rule="evenodd">
        <g id="首页" transform="translate(-24.000000, -14.000000)" fill="#039BE5">
            <g id="Group" transform="translate(24.000000, 14.000000)">
                <g id="yunphant-logo">
                    <path d="M17.1266931,25.9949568 C17.1261932,25.9940898 17.1256878,25.9932237 17.1251768,25.9923585 L17.1251768,25.8549311 C17.135272,25.8354584 17.1430188,25.8156816 17.1489433,25.7956712 C17.1426883,25.8088518 17.13608,25.8219449 17.1291201,25.8349416 C17.1351715,25.6650043 17.0455776,25.4858962 17.1990494,25.3305599 C17.1991011,25.3304426 17.1991529,25.3303253 17.1992048,25.3302079 L17.3983144,24.5081417 C16.5125317,24.450672 14.335089,26.7569551 14.3938008,28.7559003 C14.3921813,28.7621575 14.3905988,28.7684215 14.3890533,28.7746919 C14.3954451,28.7591851 14.4022481,28.7437561 14.4094622,28.7284148 C14.4094622,29.0066014 14.4094622,29.2847879 14.4094622,29.5629745 C14.3915847,29.5249569 14.3762321,29.4864002 14.3634045,29.4474566 C14.3714199,29.4954227 14.381552,29.5431351 14.3938008,29.59046 C14.3797426,30.683714 14.848638,31.7296635 15.6800916,32.4597463 C16.5115453,33.1898292 17.6245659,33.5329287 18.7333702,33.4009494 C19.5071963,33.3431051 20.1749983,32.8477202 20.4411184,32.1341178 C20.4460895,32.118951 20.4506981,32.1037008 20.4549442,32.0883796 C20.4504822,32.0945116 20.4458736,32.1005968 20.4411184,32.1066323 L20.4411184,31.4944553 C20.1373485,30.5849352 19.2719873,30.6124207 18.5189444,30.4125262 C18.7739258,30.2873757 19.0453886,30.1974011 19.3255938,30.1451673 C19.3460357,30.1407116 19.3665444,30.1366528 19.3871082,30.1329909 L19.3255938,30.1329909 C19.5400183,29.9764518 19.8080531,29.9764518 20.0224776,30.1329909 L20.0224776,30.1329909 L19.9609632,30.1329909 C19.981527,30.1366528 20.0020357,30.1407116 20.0224776,30.1451673 C20.673774,30.231204 21.25232,30.5961212 21.6014775,31.1411197 C21.950635,31.6861182 22.0342854,32.3548203 21.8297806,32.9661788 C21.6234571,33.5409125 21.1903935,34.010714 20.6274646,34.2704905 C20.0418568,34.6043776 19.3931711,34.8185815 18.7206068,34.9001583 C17.9701165,35.2699632 17.188994,35.1275383 16.3951081,35.075066 C16.3005051,35.0643861 16.2065872,35.0487875 16.1137509,35.0283479 L16.1857877,35.0853508 L15.8054372,35.0853508 L15.8054372,34.9001583 C13.4467536,34.6702796 11.4505517,33.6658096 9.61772176,32.2365638 C7.30630863,30.4144342 5.46918405,28.0818377 4.2570772,25.4301552 C3.60743537,24.0373497 3.16885989,22.5592222 2.95520638,21.0424704 C2.89904724,20.6601721 2.91946875,20.2703778 2.8250193,19.8955755 C2.81908191,19.8791969 2.81412099,19.862719 2.80999263,19.8461566 C2.66802866,19.6384283 2.77088569,19.4119904 2.75623929,19.1932417 C2.75455629,19.1891384 2.75280774,19.1850419 2.75099135,19.1809526 L2.75099135,17.2819546 C2.75331007,17.2773465 2.75550114,17.2727214 2.75757133,17.2680801 C2.76030875,17.1084893 2.68458105,16.9371165 2.81113668,16.7878386 C2.81439172,16.7775606 2.81814446,16.7673549 2.82246661,16.7572315 C2.97307519,16.3324556 2.62080426,16.3124662 2.37319354,16.2574952 C1.40572483,16.0675954 0.785421675,15.4903999 0.752236733,14.5433996 C0.722928979,13.9312868 1.01087727,13.3459653 1.5180431,12.986721 C1.80394414,12.7818291 1.74778501,13.0117078 1.7273635,13.1766208 C1.72366288,13.241536 1.72366288,13.3066027 1.7273635,13.371518 C1.72112206,13.3896385 1.71550637,13.4079097 1.71051645,13.4263014 C1.7207942,13.4076743 1.73241417,13.3893839 1.74537634,13.371518 L1.74537634,13.928724 C1.73241417,13.9108581 1.7207942,13.8925676 1.71051645,13.8739405 C1.71550637,13.8923322 1.72112206,13.9106035 1.7273635,13.928724 C1.7273635,14.5159141 2.10005594,14.8882177 2.55698707,15.1780647 C2.81225586,15.3429777 3.0139182,15.3779593 3.08794615,14.9456874 C3.32415699,13.6884489 3.71411969,12.4636136 4.24941914,11.2976123 C6.64674037,5.85641815 11.7084535,1.98367596 17.6816628,1.02053501 C17.8629036,0.990550834 18.0415918,0.945574566 18.2202799,0.910593024 C18.229891,0.905816815 18.2395876,0.901660988 18.2493575,0.89805076 C18.391703,0.747794239 18.5675352,0.835375611 18.7410283,0.823501702 C18.7136121,0.839195433 18.6856539,0.853175618 18.6572626,0.865421751 C18.682539,0.858489726 18.707136,0.848201233 18.7308175,0.833133896 L19.1162734,0.810645762 C19.128041,0.806601989 19.1398822,0.803014934 19.1517881,0.799838034 C19.3774124,0.630657396 19.6254637,0.748120564 19.8616582,0.730187281 C19.829743,0.743307765 19.797553,0.755217085 19.7651348,0.765909538 C19.7945248,0.759358925 19.8233457,0.750374715 19.8514475,0.738183997 L21.4647462,0.738183997 C21.3576196,0.879544257 21.203092,0.979498602 21.0282366,1.02053501 C17.1685725,2.62718726 14.4346438,5.21082399 13.541203,9.36363275 C13.1480891,11.1876703 13.1634052,12.9892197 14.1589535,14.6558403 C15.2081082,16.4049174 16.903093,17.1695139 18.8763207,17.4493663 C19.8603535,17.5879474 20.8615368,17.5575073 21.834886,17.3594137 C21.6230129,17.3394243 21.4085871,17.3169362 21.196714,17.3019441 C20.9848409,17.286952 20.7627571,17.2819546 20.5457786,17.2619652 C18.6236046,17.0795614 16.9158564,16.447395 15.7186458,14.885719 C14.3172202,13.0566841 14.1232159,10.9902744 14.8915749,8.91137138 C16.298106,5.11087673 19.0601142,2.81458837 23.1980213,2.20491007 C23.5451869,2.15493644 23.8949051,2.12745094 24.2420707,2.08997072 C24.2518163,2.08788137 24.2615767,2.08588071 24.2713506,2.08396875 C24.4761314,1.94868424 24.7239507,1.94991153 24.9279506,2.08765061 C24.9316206,2.08841143 24.9352886,2.0891848 24.9389545,2.08997072 C28.8369089,2.33983888 31.9486354,4.05893179 34.4681383,6.93991163 C36.6100228,9.39320054 38.0375878,12.3657246 38.60094,15.5453709 C38.6570991,15.8477114 38.6928368,16.1550492 38.7387852,16.4623871 C38.7391995,16.4634206 38.7396088,16.4644548 38.7400131,16.4654896 C38.74043,16.4627891 38.7408579,16.4600891 38.741297,16.4573897 C38.9308203,16.6472895 38.8139476,16.8646748 38.8328999,17.0695667 C38.8063662,17.0144053 38.7848206,16.958019 38.7683265,16.9008307 C38.7723738,16.960061 38.7840995,17.0183518 38.8128131,17.074564 L38.83834,18.0365564 C38.8389533,18.0401184 38.8395591,18.0436813 38.8401574,18.047245 C38.9955047,18.3213525 38.9953049,18.6349524 38.8395581,18.9089583 C38.8391554,18.9113367 38.8387494,18.9137148 38.83834,18.9160924 L38.8128131,19.7806362 C38.7954192,19.8138366 38.7839514,19.8477622 38.7765168,19.8821658 C38.790024,19.8461796 38.8057115,19.810629 38.82356,19.7756388 C38.8173931,19.9756478 38.9286147,20.1875618 38.7429345,20.3718684 C38.740869,20.3780407 38.738639,20.3841899 38.7362325,20.3903145 C38.4410193,22.6442571 37.7254615,24.8259733 36.6251596,26.8269182 C34.9785963,29.791502 32.4980438,32.2317147 29.4776335,33.8582081 C29.0513346,34.0905855 28.6633261,34.4054194 28.1476831,34.4528943 C28.1476831,34.1030789 28.5178229,34.0955828 28.6990637,33.9231738 C29.6412094,33.0409334 30.2320581,31.8594379 30.3659689,30.5899326 C30.536999,29.0782303 30.0009345,27.3716308 28.3238186,26.5120843 C28.0880324,26.4153416 27.8436438,26.3400631 27.5937499,26.287203 C27.5810204,26.2866807 27.5686687,26.2859445 27.5566857,26.2849995 C27.0596086,26.3225616 27.1064098,26.0329635 27.2389262,25.7050102 L27.2389262,25.5001183 C27.2313383,25.4834707 27.2255473,25.4665606 27.2211601,25.4494552 C27.1135228,25.3187164 27.1772587,25.1623882 27.1738826,25.0153476 C27.1710905,25.0103197 27.1681001,25.0053304 27.1648983,25.000382 C26.8841026,23.0813945 24.6938964,22.0844206 23.0805977,22.0594338 C23.0776319,22.0584651 23.0746623,22.0575117 23.0716891,22.0565737 L22.5125988,22.0565737 C22.5096255,22.0575117 22.506656,22.0584651 22.5036902,22.0594338 C20.7423356,22.10441 19.3102777,22.7740567 18.2943079,24.2082999 C18.045361,24.5163491 17.9095865,24.8974521 17.908852,25.290229 C17.9022802,25.315183 17.8963112,25.3402492 17.8909449,25.365407 C17.9031266,25.3366679 17.9169455,25.3082484 17.9324015,25.2802343 C17.9302957,25.5567551 17.9302957,25.8332758 17.9324015,26.1097966 C17.9135271,26.0755867 17.8970942,26.0407723 17.8831026,26.0055096 C17.8902983,26.0438139 17.8988815,26.0819318 17.908852,26.1197913 C17.8964797,26.6703072 18.2433286,27.1675196 18.7716605,27.3566387 C19.4162687,27.6347761 20.1669659,27.5238239 20.6989399,27.071789 C20.7755205,27.0143193 20.8469958,26.9468549 20.9210237,26.8843879 C20.9252063,26.883548 20.9292988,26.8827788 20.9332991,26.8820842 L20.9235764,26.8743931 C20.9488462,26.7794432 20.9899096,26.624525 21.109941,26.6719999 C21.2773532,26.7444617 21.2110201,26.8893852 21.0688776,26.9893325 L21.0448546,26.9703293 C21.0433571,26.9792401 21.0412283,26.9888924 21.0384474,26.9993272 C20.8342323,27.6065068 20.3773012,27.8738658 19.7621034,27.9863064 C19.1691535,28.1242372 18.5449904,28.0414105 18.0109595,27.753929 C17.5530789,27.4876664 17.252462,27.0235389 17.2017575,26.5045883 C17.1923334,26.4852462 17.1854074,26.4655144 17.1803587,26.4454898 C17.0593151,26.3076834 17.1274481,26.1464413 17.1266931,25.9949568 Z M28.0838659,35.329463 C27.8643348,35.3852818 27.7903068,35.3542714 27.7443584,35.255038 C27.7443584,35.255038 27.7749907,35.177512 27.7800961,35.177512 C27.854124,35.2085224 27.928152,35.2488359 28.0838659,35.329463 Z M26.6952037,11.6274382 C26.4005443,10.973011 26.5660028,10.207483 27.1061865,9.72594157 C27.6727345,9.21319763 28.5022143,9.09225068 29.1968378,9.42110242 C29.9294593,9.78091257 30.2715194,10.4530579 30.1617539,11.4075543 C29.70227,10.7454036 29.1406787,10.350612 28.3263713,10.4080816 C27.5120638,10.4655513 27.0219478,10.9203114 26.6952037,11.6274382 Z" id="Combined-Shape"></path>
                </g>
                <path d="M63.0098941,23.2208173 C63.0214398,23.2168104 63.032888,23.2121207 63.044223,23.2066411 C64.7102461,22.793452 65.8262061,21.2319678 65.6739978,19.5269827 C65.5254376,17.606596 64.3187125,16.3748459 62.3978562,16.0786022 C61.0920909,15.8759092 59.3302201,16.3852404 58.9418787,17.9963903 C58.6085393,19.3465864 59.1052735,20.7486713 60.6894824,20.9583214 C60.903367,21.1088589 61.1650036,21.1106638 61.3800332,20.9637359 C61.3883139,20.9621594 61.3965861,20.9605231 61.4048491,20.9588272 C61.9337733,20.9328359 62.4374286,20.7253582 62.830505,20.3715371 C63.0337978,20.1844358 63.1276252,20.0129263 62.8695997,19.7894442 C62.6115743,19.5659621 62.3848246,19.3086979 62.142437,19.069624 C62.0199401,18.9500871 61.9130811,18.7863735 61.7879778,19.0852158 C61.706203,19.2386044 61.5282024,19.3143561 61.3605417,19.2671198 C61.1656162,19.1952194 61.0243431,19.0246047 60.9904445,18.8201557 C60.8914045,18.2796409 61.0894846,18.019778 61.7984031,17.7599151 C61.8092776,17.7568069 61.820181,17.7538351 61.8311107,17.7509997 C61.8165734,17.7593282 61.8021888,17.7682248 61.7879778,17.7776894 L62.5464163,17.7776894 C62.5268895,17.7646844 62.507035,17.752752 62.4869069,17.7418921 C62.5103332,17.7472796 62.5336529,17.7532873 62.5568416,17.7599151 C63.3726191,18.0119821 63.7635668,18.6018708 63.8600005,19.4100444 C63.9564343,20.218218 63.502935,21.2576695 62.371793,21.2576695 C62.2725189,21.2963406 62.1659007,21.3119596 62.0600008,21.3035737 C62.1592769,21.2920755 62.2580974,21.2749951 62.3561551,21.2523794 L50.5637224,21.2394917 C50.543158,21.127253 50.5375086,21.0127907 50.5469288,20.8990587 C51.0056408,18.8331488 51.4956285,16.7776334 51.9152457,14.6987303 C51.9986479,14.2543648 52.1915154,14.2543648 52.5199115,14.2543648 L58.100038,14.2543648 C60.2841324,14.2543648 62.4682268,14.2335758 64.6523212,14.267358 C65.1944353,14.2751538 65.3403891,14.1036443 65.2882627,13.602109 C65.2677498,13.2745701 65.2670433,12.9461073 65.2861429,12.6185048 C65.2868498,12.6188467 65.2875563,12.6191894 65.2882627,12.619533 C65.2876324,12.6179331 65.2869986,12.6163464 65.2863614,12.6147728 C65.286975,12.6043298 65.2876088,12.5938877 65.2882627,12.5834465 C65.2740316,12.5634526 65.2589575,12.5471005 65.243205,12.5337991 C65.1359991,12.3824461 64.9729671,12.4462356 64.8373697,12.4518286 L48.0031626,12.4518286 C47.8696594,12.4518286 47.712265,12.392702 47.6065975,12.5265169 C47.5873806,12.5414927 47.5691729,12.5609609 47.5522696,12.5860451 C47.5527667,12.5980827 47.5532619,12.6101204 47.5537546,12.622158 C47.5532573,12.6234246 47.5527623,12.6246996 47.5522696,12.6259831 C47.5528053,12.6257055 47.5533411,12.6254285 47.5538771,12.6251519 C47.5714095,13.0538832 47.5856903,13.4826145 47.5705138,13.9113458 C47.5626949,14.1816032 47.6565223,14.2569634 47.9171541,14.2569634 L49.6086544,14.2569634 C49.8327977,14.2543648 49.9839642,14.3115346 49.9240189,14.5713975 C49.6321113,15.8707119 49.3375973,17.1700264 49.0509024,18.4693408 C48.7068684,20.057103 48.3628344,21.6448652 48.0083752,23.2664096 L54.2035928,23.2664096 L62.5047152,23.2846 C62.5350077,23.2678721 62.5662168,23.2572927 62.5980296,23.2507223 C62.5612101,23.2638217 62.5248473,23.2791702 62.4890773,23.2967436 C62.6693277,23.2874501 62.8567922,23.3793268 63.0098941,23.2208173 Z M47.933995,8.84886939 C47.9501355,8.92038654 47.9718209,8.99156213 48.0005563,9.06230442 C48.2038491,9.05450853 48.4097482,9.03891676 48.613041,9.03891676 L63.8339373,9.03891676 C64.0580807,9.03891676 64.2796177,9.02072636 64.5011547,9.03891676 C64.847795,9.06750168 65.011993,8.98954281 64.9807172,8.58155809 C64.9494414,8.17357336 64.9807172,7.76299001 64.9807172,7.35500528 C64.8530076,7.14451635 64.6445022,7.22767247 64.4594536,7.23806699 L58.9861861,7.23806699 L48.3915039,7.23806699 C48.2142743,7.23806699 47.9067288,7.15231224 47.8910909,7.35240665 C47.8493898,7.924105 47.6904044,8.51399374 47.9875247,9.07010031 C47.9614104,8.99632807 47.9445384,8.9226453 47.933995,8.84886939 Z M47.915979,7.86684811 C47.9205346,7.76448694 47.9226007,7.66227045 47.9179811,7.5604544 C47.8975445,7.63601512 47.8969696,7.73309427 47.9145478,7.85654065 C47.9150373,7.85997819 47.9155142,7.86341401 47.915979,7.86684811 Z M87.3669048,23.3041228 C87.3658607,23.3036843 87.3648175,23.3032402 87.3637751,23.3027904 C86.0516694,23.2109887 84.7665568,22.8862582 83.5689763,22.3438963 C82.3744199,21.8467327 81.396108,20.9422303 80.8088856,19.7920428 C80.4400451,19.0937287 80.1268008,18.367636 79.872029,17.6204689 C79.6836826,18.0593464 79.846528,18.5159621 79.7972031,18.9630802 C79.716576,19.5503704 79.9036308,20.1454564 79.6907753,20.7249506 L79.6907753,20.6146925 C79.6883765,20.6514531 79.6857751,20.688206 79.6829563,20.7249506 C79.6386489,21.0601737 79.6125857,21.3953968 79.5474278,21.7280213 C79.351954,22.7336907 78.6951619,23.2508178 77.7230053,23.4041369 C77.7144343,23.4073188 77.705825,23.4102495 77.6971806,23.4129469 C77.4625961,23.6130476 77.2007348,23.4817109 76.9515352,23.5007848 C77.0098184,23.4774546 77.068895,23.4578188 77.1285355,23.4419067 C77.0732286,23.4477603 77.019176,23.4596276 76.9671731,23.4820958 L76.6153202,23.4820958 C76.615279,23.4819992 76.6152379,23.4819027 76.6151968,23.4818062 C76.6152378,23.4827689 76.6152789,23.4837317 76.6153202,23.4846944 C76.3286252,23.0377302 76.4876106,22.5465894 76.5214927,22.0840335 C76.5370397,21.8721856 76.8204989,21.9813977 77.0056342,21.9622474 C76.951482,22.0099625 76.8681134,22.0075348 76.7869451,22.0069125 C76.8457984,21.9821946 76.9180384,21.9668671 77.0058473,21.9620591 C77.0068668,21.9611572 77.0078758,21.9602373 77.0088742,21.9592993 C77.3339427,21.8866443 77.6149362,21.6843183 77.7863332,21.3994993 C77.9577303,21.1146804 78.0045492,20.7722641 77.9158728,20.4520946 C77.8376833,20.1922317 77.7099737,20.3117686 77.5744452,20.3923261 C76.9802047,20.7483382 76.3989958,21.127738 75.7865111,21.449968 C74.5863217,22.0586482 73.3062502,22.4960352 71.9838933,22.7492824 C71.0847823,22.9552332 70.1717292,23.0950614 69.252103,23.1676452 C69.2529607,23.1719825 69.2538257,23.176319 69.2546981,23.1806548 C69.2524398,23.1764316 69.2502019,23.1722032 69.2479842,23.1679698 C69.2381869,23.168741 69.2283889,23.1695044 69.2185901,23.1702603 C69.2094987,23.1314445 69.2011177,23.0925039 69.1934473,23.0534577 C69.0309475,22.6754032 69.0242842,22.2649892 69.1744299,21.8836564 C69.1820548,21.8368452 69.1906933,21.7901533 69.2003458,21.7436131 C71.5277877,21.4837502 73.7561895,20.8912628 75.7969364,19.7088867 C76.479741,19.3128376 77.1366842,18.8781107 77.8064077,18.463782 C77.8065201,18.2482031 77.7360583,18.0384745 77.605721,17.8664589 C77.6091326,17.8642668 77.6125861,17.8619295 77.6160765,17.8594667 C77.6152336,17.8591979 77.6143881,17.85893 77.6135399,17.858663 C76.9697794,18.2250697 76.3286252,18.5992722 75.6796521,18.957883 C74.5813064,19.5265234 73.4082996,19.9385325 72.1950051,20.1818372 C71.5133078,20.3675995 70.8149195,20.4859753 70.1099508,20.5352507 C70.1045269,20.5376269 70.0990797,20.5398351 70.0936108,20.5418866 C70.1008006,20.5430502 70.1079853,20.5443179 70.1151634,20.5456899 C69.9509654,20.7262946 69.7580979,20.626317 69.5782619,20.6392174 C69.6322438,20.6083422 69.6882102,20.5840358 69.7453799,20.5664344 C69.6863096,20.5694939 69.6282937,20.5801043 69.5730493,20.6106109 L69.2414319,20.6106109 C69.2423267,20.615809 69.2432315,20.6210063 69.2441464,20.6262027 C69.2415184,20.6210124 69.2389202,20.6158151 69.2363518,20.6106109 L69.1977395,20.6106109 C69.1861451,20.5569411 69.1758717,20.5030609 69.1669195,20.4490183 C69.0409224,20.106415 69.038016,19.7420524 69.1582004,19.3984453 C69.1690011,19.3257836 69.1821808,19.2533849 69.1977395,19.1813651 C71.0183215,19.0649813 72.8007275,18.6083531 74.4520764,17.8352753 C75.2430915,17.4784186 76.0085494,17.0677321 76.7430298,16.6061239 C75.7891174,16.6710896 74.9733399,16.5177705 74.1367119,16.8659868 C72.776214,17.4272906 71.3114633,17.676759 69.8884138,18.0457643 C69.7222722,18.072651 69.553878,18.0831312 69.3856773,18.0770538 C69.3889872,18.0813579 69.3923675,18.0856536 69.3958197,18.089941 C69.2707164,18.1782943 69.2029522,18.1133286 69.2003458,17.9911931 L69.2003458,16.7854293 C69.195493,16.5580199 69.3374696,16.5333131 69.5043026,16.5435664 C69.5127699,16.5404435 69.5209485,16.5370709 69.5287419,16.5333623 C71.0586505,16.3904377 72.489519,15.8863037 73.9073559,15.3405917 C74.2774531,15.1976671 74.6371249,15.0365521 75.0072221,14.8806344 C74.9368515,14.6935331 74.7961103,14.7662947 74.6970702,14.7662947 L70.7015849,14.7662947 C70.3707494,14.777489 70.0491469,14.6563922 69.8083238,14.4299445 C69.5675007,14.2034968 69.4274313,13.8904802 69.4192765,13.5605309 C69.3723628,12.8614998 69.2967796,12.1416796 69.513104,11.4504443 C69.5823692,11.2202416 69.6618609,10.9900388 69.8965285,10.8935186 L69.7867674,10.840161 L69.986059,10.7727219 C69.9199238,10.7816624 69.8534574,10.788426 69.7867674,10.7929912 L69.2967796,10.8345693 L69.2967796,9.39492891 C69.2967796,9.22082078 69.3384807,9.11687563 69.5287419,9.06750168 C70.3836142,8.83622371 71.0169494,8.36067464 71.2854001,7.47194358 C71.3320214,7.30108744 71.4974922,7.19036083 71.6737415,7.2120807 C72.1819735,7.23286973 72.6902055,7.2120807 73.2088627,7.2120807 L73.1880122,7.69542566 C73.18917,7.70235177 73.1904149,7.709066 73.1917442,7.71557406 C73.1922322,7.71406274 73.1927257,7.71254387 73.1932248,7.71101743 C73.3011244,7.882363 73.4400445,7.88788471 73.5791638,7.87484065 C73.6128085,7.86745723 73.6446538,7.8617379 73.6727873,7.8617379 C73.6837165,7.86179484 73.6946457,7.86185127 73.7055749,7.86190721 C73.7252756,7.86036458 73.7447845,7.8593713 73.7640084,7.8593713 L81.5391468,7.8593713 C82.0784234,7.8534869 82.6175344,7.84006298 83.1557818,7.86016988 C83.2747448,7.85608686 83.3994769,7.83485572 83.5170812,7.87917235 C83.5656639,7.88253046 83.6142382,7.8862372 83.6628037,7.89032282 C84.0302945,7.93190088 84.4003917,7.96568306 84.7678825,8.01765563 C85.6462116,8.14758707 86.0710414,8.96875378 85.7634959,9.90685879 C85.7209212,10.0692517 85.6597026,10.2262065 85.5810537,10.374612 C85.4481315,10.5876995 85.5445652,10.6864474 85.7322201,10.7488145 C86.1994961,10.9142057 86.549517,11.3063274 86.6600693,11.7882661 C86.6626716,11.8160992 86.6651483,11.8439411 86.6674994,11.8717909 C86.8307744,12.4281012 86.8265601,13.0080389 86.6548566,13.5631295 L86.6548566,13.5631295 L86.6548566,13.5354757 C86.2695373,14.5625369 86.0242475,14.7325125 84.8929858,14.7325125 L78.7994146,14.7325125 C78.3640392,14.7209689 77.9483473,14.9132963 77.6760916,15.2522383 C78.478939,15.2974494 79.1941772,15.7728681 79.5448215,16.4943829 C79.6625174,16.5202394 79.7807223,16.5339172 79.8991765,16.5405087 L80.3970496,16.5405087 C80.5604207,16.5360063 80.7235755,16.5315745 80.8858361,16.5405087 L80.9600521,16.5405087 C81.0911367,16.5405087 81.2526593,16.4852676 81.3586758,16.6340092 C81.371926,16.644561 81.3850147,16.6568259 81.3979135,16.6710896 C81.4094595,16.7369673 81.425128,16.8020601 81.4448272,16.8659868 C81.6715769,17.4792632 81.6898211,17.4688687 82.2084783,17.0219045 C83.3135571,16.0708064 84.4916128,15.2522383 86.026734,15.1846739 C86.0440778,15.1786591 86.0615444,15.1736775 86.0791149,15.1695709 C86.2913021,15.0294423 86.5241486,15.130868 86.7473486,15.1175931 C86.7538941,15.1149938 86.760421,15.1122369 86.7669283,15.1093137 L86.7982041,15.1093137 C86.8972442,15.6576244 87.0744738,16.2085337 86.7017704,16.7282595 C85.5940853,16.6243143 84.7079372,17.1154551 83.8973723,17.7859014 C83.5038183,18.11073 83.1493591,18.4823339 82.7531988,18.8019653 C82.492567,19.0202501 82.5368744,19.1891609 82.7088914,19.4360307 C83.1997478,20.1341094 83.8872846,20.6713021 84.6844803,20.9796162 C85.7114711,21.4258061 86.8195152,21.6566678 87.9397713,21.6578583 C87.944962,21.6598601 87.9501601,21.6617812 87.9553653,21.6636245 C88.2151544,21.6817451 88.4831222,21.567907 88.7334594,21.7176341 C88.7522023,21.7219558 88.7708637,21.727106 88.789431,21.7332186 C88.9233813,21.7503726 89.0583688,21.7581875 89.1934102,21.7566062 C89.4357978,21.7384158 89.5218063,21.8293678 89.5139873,22.0736389 C89.4983494,22.5128072 89.5139873,22.9519755 89.5139873,23.3911438 C89.5126607,23.3914352 89.5113339,23.3917255 89.5100068,23.3920146 C89.2226385,23.5737994 88.8833955,23.5806539 88.5913508,23.4104943 L88.6123575,23.4100524 C88.6062208,23.4089717 88.6000873,23.4078661 88.5939571,23.4067355 L87.9111019,23.3781506 C87.87048,23.3582018 87.8285887,23.3475343 87.7860186,23.3419607 C87.8268301,23.3575804 87.8668869,23.3767119 87.9058892,23.3993038 C87.723447,23.3896285 87.5253668,23.4896061 87.3585625,23.3057763 C87.3613422,23.3052094 87.364123,23.3046582 87.3669048,23.3041228 Z M70.4548003,10.6489911 C70.4863567,10.6412455 70.5182503,10.6346656 70.5504185,10.6292776 C70.8650735,10.5478209 71.1898484,10.5119385 71.5147561,10.5227338 L82.5837881,10.5227338 C82.9590979,10.5227338 83.3448329,10.5487201 83.6106774,10.192708 C83.8217891,9.90945742 83.7696628,9.77173009 83.4204162,9.72495477 C83.2668125,9.71478736 83.1127016,9.71478736 82.9590979,9.72495477 L72.8648288,9.72495477 C72.4018449,9.69040084 71.9443918,9.84305973 71.595552,10.1485313 C71.3052956,10.4127657 70.9420645,10.5838861 70.5530248,10.6396721 C70.5234727,10.649684 70.49378,10.659235 70.4639579,10.6683229 C70.4631524,10.6618258 70.4600498,10.6554438 70.4548003,10.6489911 Z M77.8091962,18.4620571 C77.8108729,18.46102 77.8125496,18.4599831 77.8142264,18.4589462 C77.8142922,18.4586444 77.8143581,18.4583425 77.814424,18.4580407 C77.8127054,18.4593844 77.8109629,18.4607233 77.8091962,18.4620571 Z M79.6907753,17.7542475 C79.6899573,17.741588 79.6898572,17.7291516 79.6907753,17.7170395 L79.6907753,17.7542476 Z M86.7017704,16.7412526 C87.1041617,16.2215268 86.8950449,15.6680189 86.8190025,15.1223068 C87.1421829,15.5380874 87.0693089,16.5411582 86.7017704,16.7412526 Z M62.4213131,28.1752194 C62.4213131,27.2734952 62.436951,26.5276887 62.4213131,25.7792836 C62.4213131,25.4622509 62.5490226,25.4284688 62.8122607,25.4232715 C63.0754988,25.4180742 63.1536884,25.5194208 63.1510821,25.776685 C63.1510821,26.8005448 63.1510821,27.8218059 63.1380505,28.8456657 C63.1380505,29.0327669 63.3100674,29.3368065 62.9920967,29.4069695 C62.6945135,29.5127685 62.3638298,29.3885785 62.2102013,29.1133244 C61.6889377,28.2947563 61.1207604,27.5151677 60.4796062,26.5848586 L60.4796062,28.3337358 C60.4796062,28.5728096 60.4639683,28.8118835 60.4796062,29.0483587 C60.5056694,29.3316092 60.4170546,29.4303571 60.1173281,29.4303571 C59.8176015,29.4303571 59.7498372,29.3290106 59.7524436,29.0483587 C59.7680815,27.9907168 59.7524436,26.9356735 59.7524436,25.8780315 C59.7524436,25.7299097 59.6377656,25.4700468 59.8775468,25.454455 C60.1173281,25.4388633 60.3988104,25.2751497 60.6021032,25.5999783 C61.1624615,26.4341381 61.756702,27.2371144 62.4213131,28.1752194 Z M81.3014797,26.5796613 C81.3014797,27.5125691 81.2884481,28.2947563 81.3014797,29.074345 C81.3014797,29.3835818 81.1894081,29.4355544 80.9157447,29.4355544 C80.6420813,29.4355544 80.5664981,29.3549969 80.5691044,29.0873381 C80.582136,28.0141044 80.5691044,26.9382721 80.5691044,25.8650384 C80.5691044,25.7221138 80.4518201,25.4674482 80.7124519,25.454455 C80.9730837,25.4414619 81.1946207,25.3167277 81.4057324,25.5765906 C81.8175307,26.0963164 82.1433204,26.6498243 82.5160239,27.1825432 C82.721923,27.4761883 82.9382474,27.7646361 83.2327613,28.1726208 L83.2327613,25.8130658 C83.2327613,25.5532029 83.2822813,25.4206729 83.5898268,25.4232715 C83.8973723,25.4258701 83.9651366,25.5090262 83.9625303,25.797474 C83.9468924,26.8369256 83.9625303,27.8763771 83.9468924,28.9158286 C83.9468924,29.0795422 84.1189093,29.3653914 83.7853007,29.4121667 C83.5041961,29.5028338 83.1968616,29.3968034 83.0320748,29.1523039 C82.5134175,28.3207426 81.9452402,27.520365 81.3014797,26.5796613 Z M70.1177697,27.4112225 C70.1177697,26.8499187 70.1334076,26.2860163 70.1177697,25.7247124 C70.1047381,25.3868907 70.3132436,25.4466592 70.5139301,25.433666 C70.7146165,25.4206729 70.8788146,25.4778427 70.8423261,25.7377056 C70.8364229,25.7886425 70.8364229,25.8400878 70.8423261,25.8910247 C70.8762082,26.2756217 70.6833407,26.9148844 70.9257283,26.9928433 C71.4469918,27.1643528 72.0672955,27.0630063 72.6458981,27.0630063 C72.8283403,27.0630063 72.7892456,26.9044899 72.7918519,26.8031434 C72.7918519,26.4445326 72.8127024,26.0859218 72.7918519,25.7299097 C72.7710013,25.3738975 72.989932,25.4570537 73.1906185,25.4414619 C73.391305,25.4258701 73.5242272,25.4882372 73.5216209,25.7481001 C73.5216209,26.8733064 73.505983,27.9985127 73.5216209,29.1263176 C73.5216209,29.4303571 73.3808797,29.4407517 73.1489174,29.4459489 C72.9169551,29.4511462 72.7736076,29.3991736 72.7918519,29.1133244 C72.8153087,28.7391219 72.7918519,28.3623207 72.7918519,27.9881181 C72.7918519,27.7646361 72.718875,27.6892758 72.497338,27.6970717 C72.0360197,27.7100649 71.5747014,27.7126635 71.1133832,27.6970717 C70.8736019,27.6970717 70.8292945,27.7984182 70.8345071,28.0037099 L70.8345071,29.024971 C70.8475387,29.3004257 70.8162629,29.4511462 70.46441,29.4537448 C70.1125571,29.4563434 70.1073445,29.2588476 70.1125571,29.0093793 C70.1229824,28.4662658 70.1177697,27.9387442 70.1177697,27.4112225 Z M79.0287705,29.3731873 C78.4527743,29.5654858 78.1087403,29.3731873 78.0305508,28.8144821 C77.991456,28.5338302 77.835077,28.4974494 77.6083273,28.5026467 C77.3020511,28.5247486 76.9945733,28.5247486 76.6882971,28.5026467 C76.3885705,28.4662658 76.2660736,28.5987959 76.1983093,28.8534615 C76.1696398,28.9652026 76.1201198,29.0717464 76.0836313,29.1808888 C75.9454965,29.5914721 75.5753994,29.4693366 75.3538623,29.4017722 C75.0932306,29.3186161 75.3382244,29.095134 75.3929571,28.9470122 C75.7812985,27.9075607 76.195703,26.8681091 76.5736191,25.8286576 C76.6648402,25.5687947 76.7378171,25.433666 77.0427563,25.433666 C77.3476955,25.433666 77.5874768,25.4856386 77.7099737,25.826059 C78.1269846,27.0006392 78.5830902,28.1752194 79.0287705,29.3731873 Z M57.7012714,27.1045843 C57.6413261,27.5541471 57.7924925,28.0972606 57.6074439,28.6299795 C57.5258318,28.9049867 57.3384508,29.1366537 57.0861804,29.2744394 C56.4648784,29.6292361 55.7067721,29.650693 55.066284,29.3316092 C54.4407677,29.0717464 54.3573656,28.4662658 54.3156645,27.9075607 C54.2609318,27.1955364 54.3156645,26.4783148 54.2974202,25.7636919 C54.2974202,25.4804413 54.401673,25.433666 54.6544858,25.4258701 C54.9072986,25.4180742 55.0245829,25.5064276 55.0324019,25.7948754 C55.0506461,26.603049 54.9359681,27.4164198 55.1210167,28.2245934 C55.2143544,28.6864803 55.6584054,28.9912241 56.1244491,28.91323 C56.6613506,28.8768492 56.9636834,28.6065918 56.9715024,28.115451 L56.9715024,25.867637 C56.9715024,25.6207673 56.9376203,25.4154756 57.320749,25.4206729 C57.7038777,25.4258701 57.7090903,25.5635975 57.6960588,25.8442494 C57.6882398,26.2366423 57.7012714,26.6160421 57.7012714,27.1045843 Z M65.0953952,27.4372088 L65.0953952,25.7506987 C65.0953952,25.6285632 65.0380562,25.4362646 65.2517743,25.4440605 C66.0128191,25.4674482 66.7842892,25.3167277 67.5296961,25.5428084 C68.1395745,25.7299097 68.3558989,26.1716766 68.275103,26.9590611 C68.2012997,27.4487252 67.8130849,27.8315644 67.3211907,27.8997648 C66.9409375,27.9791746 66.5519318,28.0088755 66.1639855,27.9881181 C65.9033537,27.9881181 65.7808568,28.0374921 65.8095263,28.3233413 C65.8303768,28.5416261 65.8095263,28.7651082 65.8095263,28.9859916 C65.8095263,29.2068751 65.8590463,29.4355544 65.4680986,29.4407517 C65.077151,29.4459489 65.0823636,29.2406572 65.0875762,28.9703998 C65.0953952,28.4610686 65.0953952,27.9491387 65.0953952,27.4372088 Z M48.8580348,25.4908358 C49.4027553,25.3479113 49.7963093,25.4050811 50.0491221,25.9300041 C50.2524149,26.3457847 50.5260783,26.7277832 50.7841038,27.1461624 C51.0566597,26.7570873 51.308096,26.3537208 51.5373296,25.9378 C51.7979614,25.4310674 52.155027,25.342714 52.6736842,25.4856386 C52.4922038,25.9139261 52.2470674,26.3125212 51.9465215,26.6680147 C51.4252579,27.4060253 50.9639397,28.1518318 51.1359567,29.1133244 C51.1776578,29.3575955 51.0655861,29.4641393 50.8231985,29.4225613 C50.6642131,29.396575 50.3696992,29.5187105 50.4296445,29.2016778 C50.6902763,27.8477922 49.8093409,26.946068 49.1499424,25.9533918 C49.0535087,25.8182631 48.9701065,25.6753385 48.8580348,25.4908358 Z M87.4315394,25.4362646 L88.7659741,25.4362646 C88.9849048,25.4362646 89.1152207,25.4570537 89.1100081,25.7325083 C89.1047954,26.007963 89.0500628,26.0573369 88.7972499,26.0625342 C88.4636412,26.0625342 88.0153546,25.8910247 87.8276997,26.1482889 C87.6400448,26.4055532 87.7703607,26.7953475 87.7703607,27.1357679 C87.7703607,27.7828265 87.7521165,28.4350823 87.7703607,29.0795422 C87.7703607,29.396575 87.6478637,29.4303571 87.379413,29.4355544 C87.1109623,29.4407517 87.035379,29.3446024 87.0379854,29.0821409 C87.0536233,28.2141989 87.0379854,27.3436582 87.0379854,26.4835121 C87.0379854,26.1612821 86.9728274,26.007963 86.6209745,26.0547383 C86.4359259,26.0807246 86.2456647,26.0547383 86.0580098,26.0547383 C85.8182286,26.0729287 85.6879127,26.0313506 85.6879127,25.7325083 C85.6879127,25.433666 85.8729613,25.433666 86.0814667,25.4362646 C86.542785,25.4388633 86.9884653,25.4362646 87.4315394,25.4362646 Z M81.7028527,13.2824776 L79.2920086,13.2824776 C78.9948884,13.2824776 78.8463283,13.1759338 78.9349431,12.9056765 C79.0235579,12.6354191 78.6117597,12.1260878 79.2424886,12.1260878 C80.9001068,12.110496 82.5603313,12.1260878 84.2179494,12.1260878 C84.632354,12.1260878 84.739213,12.3391754 84.7600635,12.6951875 C84.7809141,13.0511997 84.6141097,13.2720831 84.2179494,13.2720831 L81.705459,13.2720831 L81.7028527,13.2824776 Z M74.3113352,12.1312851 L76.7195729,12.1312851 C77.0166931,12.1312851 77.147009,12.1832576 77.1365838,12.5184808 C77.1079143,13.4695789 77.2017417,13.279879 76.3859642,13.2980694 C74.9177385,13.3084639 73.448644,13.3084639 71.9786807,13.2980694 C71.4052908,13.2980694 71.3297075,13.1837297 71.3427391,12.6354191 C71.3427391,12.2846042 71.5121498,12.1494755 71.8483648,12.1546727 C72.6719612,12.1364823 73.4903451,12.1312851 74.3113352,12.1312851 Z M77.1313711,26.3379888 C77.3432749,26.8344698 77.5175185,27.3461033 77.6526347,27.8685812 L76.5631938,27.8685812 L77.1313711,26.3379888 Z M66.5445079,27.2760938 L66.1379223,27.2760938 C65.9111727,27.2968829 65.7964947,27.239713 65.8043137,26.9772515 C65.8434084,25.8156644 65.6166588,26.0729287 66.7269502,26.0521397 C67.2847022,26.0521397 67.5479403,26.2782204 67.5531529,26.7043955 C67.5583656,27.1305706 67.3602854,27.2734952 66.7478007,27.2760938 L66.5445079,27.2760938 Z" id="Combined-Shape"></path>
            </g>
        </g>
    </g>
</svg>